<svg width="16" height="17" viewBox="0 0 16 17" fill="none" xmlns="http://www.w3.org/2000/svg">
<path d="M14.4202 11.6942H5.11549L5.58268 10.7427L13.3452 10.7286C13.6077 10.7286 13.8327 10.5411 13.8796 10.2817L14.9546 4.26455C14.9827 4.10674 14.9405 3.94424 14.8374 3.8208C14.7864 3.76005 14.7228 3.71112 14.6511 3.67739C14.5793 3.64366 14.501 3.62595 14.4217 3.62549L4.54674 3.59268L4.46237 3.1958C4.40924 2.94268 4.18112 2.7583 3.92174 2.7583H1.50768C1.36139 2.7583 1.2211 2.81641 1.11766 2.91985C1.01423 3.02329 0.956116 3.16358 0.956116 3.30986C0.956116 3.45615 1.01423 3.59644 1.11766 3.69988C1.2211 3.80331 1.36139 3.86143 1.50768 3.86143H3.47487L3.84362 5.61455L4.75143 10.0099L3.58268 11.9177C3.52198 11.9996 3.48543 12.0969 3.47714 12.1985C3.46886 12.3001 3.48918 12.402 3.5358 12.4927C3.62955 12.6786 3.81862 12.7958 4.02799 12.7958H5.00924C4.80005 13.0736 4.68706 13.4121 4.68737 13.7599C4.68737 14.6442 5.40612 15.363 6.29049 15.363C7.17487 15.363 7.89362 14.6442 7.89362 13.7599C7.89362 13.4114 7.77799 13.0724 7.57174 12.7958H10.0889C9.87974 13.0736 9.76675 13.4121 9.76705 13.7599C9.76705 14.6442 10.4858 15.363 11.3702 15.363C12.2546 15.363 12.9733 14.6442 12.9733 13.7599C12.9733 13.4114 12.8577 13.0724 12.6514 12.7958H14.4217C14.7249 12.7958 14.9733 12.5489 14.9733 12.2442C14.9724 12.0981 14.9137 11.9583 14.8101 11.8552C14.7065 11.7522 14.5663 11.6943 14.4202 11.6942V11.6942ZM4.77643 4.68018L13.7733 4.70986L12.8921 9.64424L5.82487 9.65674L4.77643 4.68018ZM6.29049 14.2536C6.01862 14.2536 5.79674 14.0317 5.79674 13.7599C5.79674 13.488 6.01862 13.2661 6.29049 13.2661C6.56237 13.2661 6.78424 13.488 6.78424 13.7599C6.78424 13.8908 6.73222 14.0164 6.63962 14.109C6.54703 14.2016 6.42144 14.2536 6.29049 14.2536V14.2536ZM11.3702 14.2536C11.0983 14.2536 10.8764 14.0317 10.8764 13.7599C10.8764 13.488 11.0983 13.2661 11.3702 13.2661C11.6421 13.2661 11.8639 13.488 11.8639 13.7599C11.8639 13.8908 11.8119 14.0164 11.7193 14.109C11.6267 14.2016 11.5011 14.2536 11.3702 14.2536V14.2536Z" fill="white"/>
</svg>
